<?xml version="1.0" encoding="utf-8"?>
<!-- Generator: Adobe Illustrator 19.2.0, SVG Export Plug-In . SVG Version: 6.00 Build 0)  -->
<svg version="1.1" id="Capa_1" xmlns="http://www.w3.org/2000/svg" xmlns:xlink="http://www.w3.org/1999/xlink" x="0px" y="0px"
	 viewBox="0 0 110.8 20.1" style="enable-background:new 0 0 110.8 20.1;" xml:space="preserve">
<style type="text/css">
	.st0{fill-rule:evenodd;clip-rule:evenodd;}
	.st1{fill:#C00D0D;}
	.st2{fill:#FFFFFF;}
</style>
<g>
	<path class="st0" d="M70.6,9.8c0.1,0,0.1,0,0.1,0c1,0.1,1.9,0,2.9-0.2c0.9-0.2,1.7-0.6,2.2-1.3c1-1.1,1.2-2.4,0.6-3.8
		c-0.4-1-1.2-1.8-2.3-2.1c-1-0.3-2.1-0.4-3.1-0.4c-0.1,0-0.3,0-0.4,0C70.7,4.7,70.6,7.3,70.6,9.8L70.6,9.8z M70.6,11.3
		c0,0.3,0,0.6,0,0.9c0,1.5,0,3,0,4.5c0,0.5,0.3,0.8,0.8,0.8c0.6,0,1.2,0,1.7,0c0,0,0.1,0,0.1,0c0,0.7,0,1.3,0,2c-4.7,0-9.4,0-14.1,0
		c0-0.7,0-1.4,0-2c0.2,0,0.4,0,0.6,0c0.5,0,1.1,0,1.6,0c0.4,0,0.5-0.2,0.5-0.6c0-4.5,0-9.1,0-13.6c0-0.2-0.1-0.3-0.2-0.4
		c-0.2-0.1-0.4-0.1-0.6-0.1c-0.6,0-1.1,0-1.7,0c0,0-0.1,0-0.1,0c0-0.7,0-1.3,0-2c0.1,0,0.1,0,0.2,0c1.3,0,2.5,0,3.8,0
		c2.3,0,4.5,0,6.8,0c0.8,0,1.5,0,2.3,0c1.4,0,2.8,0,4.1,0c0.9,0,1.8,0.1,2.7,0.3c1,0.2,2,0.4,2.9,0.8c0.7,0.3,1.3,0.7,1.9,1.2
		c0.7,0.7,1.1,1.5,1.2,2.5c0.1,1.7-0.6,3-2,3.8c-0.8,0.5-1.7,0.8-2.6,1c-0.7,0.1-1.4,0.2-2.1,0.4c-0.2,0-0.3,0.1-0.5,0.1
		c0.2,0.2,0.3,0.4,0.4,0.6c1.5,1.8,3.1,3.4,5.1,4.6c1.2,0.8,2.6,1.2,4,1.5c0.5,0.1,1.1,0.1,1.6,0.2c0.1,0,0.1,0,0.1,0.1
		c0,0.6,0,1.1,0,1.7c-0.1,0-0.2,0-0.4,0c-1.1,0-2.2,0-3.3,0c-1,0-1.9,0-2.9-0.1c-1.2-0.1-2.5-0.3-3.6-0.8c-0.8-0.3-1.4-0.8-2.1-1.4
		c-1.8-1.6-3.3-3.5-4.4-5.7c-0.2-0.3-0.2-0.3-0.5-0.3C71.5,11.3,71.1,11.3,70.6,11.3L70.6,11.3z"/>
	<path class="st0" d="M0.4,13.4c0.1,0,0.1,0,0.1,0c0.6,0,1.2,0,1.8,0c0.1,0,0.1,0,0.2,0.1c0.5,0.6,0.9,1.3,1.5,1.9
		c1.4,1.4,3.1,2.3,5.1,2.6c1.2,0.2,2.5,0.3,3.7,0.3c0.9,0,1.8-0.1,2.7-0.2c0.8-0.1,1.6-0.3,2.3-0.7c0.5-0.3,0.8-0.6,1-1.1
		c0.2-0.7-0.1-1.5-0.7-1.8c-0.8-0.4-1.6-0.7-2.4-0.8c-0.9-0.1-1.8-0.3-2.8-0.4c-0.8-0.1-1.5-0.2-2.3-0.3c-0.9-0.1-1.9-0.2-2.8-0.4
		c-1.6-0.3-3.1-0.7-4.6-1.3c-0.8-0.4-1.6-0.9-2.3-1.6C0.4,8.9,0.1,8,0,6.9C0,5.6,0.5,4.4,1.4,3.5c0.9-0.8,1.9-1.4,3-1.8
		c1.4-0.6,2.8-0.9,4.3-1.2c0.8-0.1,1.5-0.2,2.3-0.2c0.9-0.1,1.8-0.1,2.7-0.1c1.3,0,2.6,0.1,3.9,0.2c1.9,0.2,3.9,0.4,5.8,0.9
		c0.5,0.2,1.1,0.3,1.6,0.5C25,1.8,25,1.8,25,1.9c0,1.3,0,2.7,0,4c0,0,0,0,0,0.1c0,0-0.1,0-0.1,0c-0.5,0-1.1,0-1.6,0
		c-0.1,0-0.1,0-0.2-0.1c-0.8-1.2-1.9-2.2-3.2-2.8c-0.8-0.4-1.7-0.7-2.7-0.9c-1-0.2-2.1-0.3-3.2-0.3c-0.9,0-1.8,0-2.7,0.1
		c-0.8,0.1-1.6,0.3-2.4,0.7C8.7,3,8.4,3.2,8.2,3.5C7.8,4,7.9,5.1,8.5,5.6c0.4,0.3,0.9,0.5,1.4,0.6c0.7,0.2,1.5,0.4,2.2,0.5
		c1.4,0.2,2.8,0.4,4.1,0.6c1.8,0.2,3.7,0.5,5.5,1c1.1,0.3,2.2,0.7,3.2,1.3c0.8,0.5,1.4,1.1,1.9,1.8c0.9,1.5,0.9,3.8-0.6,5.3
		c-0.8,0.8-1.7,1.3-2.7,1.7c-1.2,0.5-2.4,0.8-3.6,1c-1.3,0.2-2.5,0.4-3.8,0.5c-0.6,0.1-1.1,0.1-1.7,0.1c-1,0-2,0-3,0
		c-1,0-1.9-0.1-2.9-0.2c-1.3-0.2-2.6-0.4-3.9-0.6c-1.2-0.2-2.3-0.6-3.4-1c-0.1,0-0.1-0.1-0.1-0.2c-0.1-0.6-0.2-1.3-0.3-1.9
		c-0.1-0.7-0.2-1.5-0.3-2.2C0.5,13.8,0.5,13.6,0.4,13.4L0.4,13.4z"/>
	<path class="st0" d="M47.6,0.7c3.2,0,6.5,0,9.7,0c0,0.7,0,1.4,0,2.1c-0.2,0-0.4,0-0.6,0c-0.5,0-1.1,0-1.6,0c-0.2,0-0.4,0.1-0.5,0.2
		c-0.1,0.1-0.1,0.2-0.1,0.3c0,3.2,0,6.5,0,9.7c0,1.7-0.6,3-1.9,4.2c-1,0.9-2.1,1.4-3.3,1.8c-1.6,0.6-3.2,0.9-4.9,0.9
		C43,20,41.6,20,40.1,19.8c-2-0.2-3.9-0.5-5.8-1.3c-1-0.4-1.9-1-2.6-1.7c-0.7-0.8-1.2-1.7-1.3-2.7c-0.1-0.5-0.1-1-0.1-1.5
		c0-3.1,0-6.2,0-9.4c0-0.3-0.1-0.4-0.4-0.5c-0.1,0-0.2,0-0.3,0c-0.7,0-1.3,0-2,0c0,0,0,0-0.1,0c0-0.7,0-1.3,0-2c4.8,0,9.7,0,14.5,0
		c0,0.7,0,1.4,0,2.1c-0.2,0-0.4,0-0.6,0c-0.5,0-1.1,0-1.6,0c-0.3,0-0.6,0.3-0.6,0.6c0,2.7,0,5.4,0,8.1c0,0.6,0,1.2,0,1.8
		c0.1,0.9,0.3,1.8,1,2.6c0.5,0.6,1.2,1,2,1.3c0.7,0.3,1.5,0.4,2.3,0.4c0.9,0,1.8,0,2.8-0.2c0.9-0.2,1.8-0.6,2.6-1.2
		c0.8-0.7,1.3-1.6,1.4-2.7c0-0.4,0.1-0.8,0.1-1.2c0-2.2,0-4.4,0-6.6c0-0.8,0-1.5,0-2.3c0-0.2-0.1-0.3-0.3-0.4
		c-0.2-0.1-0.5-0.2-0.8-0.2c-0.8,0-1.7,0-2.5,0c-0.1,0-0.1,0-0.2,0C47.6,2.1,47.6,1.4,47.6,0.7L47.6,0.7z"/>
	<polygon class="st1" points="93.4,11.7 93.4,20 110.8,20 110.8,11.7 93.4,11.7 	"/>
	<g>
		<path class="st2" d="M101.4,13.8h3.3v1h-2.2v0.6h2v0.9h-2V17h2.2v1h-3.3V13.8z"/>
		<path class="st2" d="M104.9,17.3l0.6-0.8c0.4,0.3,0.8,0.5,1.3,0.5c0.3,0,0.5-0.1,0.5-0.3v0c0-0.2-0.1-0.3-0.7-0.4
			c-0.9-0.2-1.5-0.4-1.5-1.3v0c0-0.8,0.6-1.3,1.6-1.3c0.7,0,1.2,0.2,1.7,0.5l-0.6,0.8c-0.4-0.3-0.8-0.4-1.1-0.4
			c-0.3,0-0.4,0.1-0.4,0.3v0c0,0.2,0.1,0.3,0.7,0.4c0.9,0.2,1.5,0.5,1.5,1.3v0c0,0.8-0.7,1.3-1.6,1.3
			C106.1,18,105.4,17.8,104.9,17.3z"/>
	</g>
	<polygon class="st2" points="95.4,13.8 95.4,18 99.7,18 99.7,13.8 95.4,13.8 	"/>
</g>
</svg>
